<svg xmlns="http://www.w3.org/2000/svg" width="256" height="256"><path fill="#1976D2" fill-opacity=".016" fill-rule="evenodd" d="M0 128.004v128.004l128.25-.254 128.25-.254.254-127.75L257.008 0H0zm.485.496c0 70.4.119 99.053.265 63.672.146-35.38.146-92.98 0-128C.604 29.153.485 58.1.485 128.5"/><path fill="#1976D2" fill-opacity=".199" fill-rule="evenodd" d="M0 100v5l11.75.015c12.65.016 16.539 1.073 17.053 4.635.646 4.477-1.945 5.35-15.874 5.35H0v11l6.75.031 6.75.032 5.5 9.718 5.5 9.719 5.75.3c3.837.2 5.75-.082 5.75-.849 0-.632-2.25-4.971-5-9.644C25.812 126.493 25.247 125 27.099 125c3.16 0 8.212-3.674 10.56-7.681 4.268-7.283 2.166-14.75-5.649-20.069C28.961 95.175 27.59 95 14.352 95H0zm58.748-3.634c-5.306 1.98-10.384 6.106-13.492 10.964-2.037 3.184-2.765 5.778-3.078 10.972-.537 8.923 1.479 14.168 7.675 19.964 5.578 5.218 10.552 7.157 18.147 7.076 20.835-.222 32.521-24.249 19.749-40.605-4.562-5.843-10.7-8.947-18.574-9.393-4.168-.237-8.084.147-10.427 1.022m52.252.283c-6.21 2.144-10.623 5.707-13.201 10.659-1.763 3.385-2.189 5.926-2.212 13.192-.036 11.079 2.359 16.344 9.413 20.692 5.868 3.618 12.6 4.808 27.189 4.808h11.916l-.303-5.25-.302-5.25-14.5-.5c-16.197-.559-20.054-1.848-21.971-7.348-1.456-4.175-1.275-11.126.392-15.118 2.345-5.612 5.455-6.534 22.029-6.534H144V95l-14.25.048c-10.182.034-15.535.491-18.75 1.601m62.149 5.101a9963.929 9963.929 0 0 0-14.481 25L148.127 145h22.436c12.34 0 22.437-.298 22.437-.662 0-.364-1.135-2.6-2.523-4.968l-2.523-4.305-10.882-.282-10.881-.283 7.402-12.999c4.071-7.15 7.741-13.109 8.155-13.243.413-.134 5.482 7.966 11.262 17.999l10.51 18.243 24.74.267 24.74.268V135H210.025l-2.358-3.75c-1.297-2.062-6.328-10.725-11.182-19.25-4.853-8.525-9.31-15.831-9.904-16.235-.595-.404-2.974-.741-5.287-.75-4.141-.015-4.266.089-8.145 6.735M196 100v5l18.75.007 18.75.008-12.482 11.835c-12.129 11.501-12.448 11.911-11.272 14.493 1 2.194 1.87 2.657 4.991 2.657 3.528 0 4.928-1.104 21.021-16.585 14.586-14.03 17.242-17.034 17.242-19.5V95h-57zm-136.701 7.96C55.063 110.542 53 114.786 53 120.916c0 4.179.515 5.601 3.093 8.537 5.674 6.462 14.892 7.133 21.256 1.546 5.54-4.865 6.524-11.762 2.697-18.913-3.126-5.842-14.292-8.062-20.747-4.126m93.103 42.435c-.294.767-.393 3.129-.219 5.25.302 3.667.5 3.87 4.067 4.165 2.864.237 3.75-.058 3.75-1.25 0-.997-.901-1.56-2.5-1.56-1.375 0-2.5-.45-2.5-1s.9-1 2-1 2-.45 2-1-.9-1-2-1-2-.45-2-1 1.125-1 2.5-1 2.5-.45 2.5-1c0-1.566-6.985-1.203-7.598.395m14.134.565c-2.372 2.621-1.309 6.796 2.057 8.075 3.487 1.326 4.407 1.214 4.407-.535 0-.944-.952-1.5-2.566-1.5-2.21 0-2.523-.382-2.25-2.75.226-1.969.955-2.841 2.566-3.07 2.977-.422 2.901-2.18-.095-2.18-1.29 0-3.143.882-4.119 1.96m14.664-.76c-2.023 2.023-1.477 7.581.867 8.836 3.068 1.642 6.933-1.159 6.933-5.024 0-4.189-4.986-6.626-7.8-3.812m22.55-.628c-1.124 1.141-.904 9.428.25 9.428.55 0 1-.9 1-2 0-1.467.667-2 2.5-2s2.5.533 2.5 2c0 1.1.45 2 1 2s1-2.25 1-5-.45-5-1-5-1 .9-1 2c0 2.89-4.738 2.803-5.18-.095-.176-1.152-.658-1.752-1.07-1.333m14.45.628c-.66.66-1.2 2.7-1.2 4.532 0 2.543.533 3.53 2.25 4.165 3.632 1.344 6.75-.669 6.75-4.358 0-3.648-1.536-5.539-4.5-5.539-1.155 0-2.64.54-3.3 1.2M230 154c0 2.75.45 5 1 5s1-1.42 1-3.155c0-2.984.099-3.066 1.814-1.514 1.265 1.146 2.13 1.325 2.862.593.732-.732 1.238-.103 1.675 2.08.875 4.374 2.649 2.769 2.649-2.396 0-5.362-.78-6.163-3.507-3.602l-2.155 2.025-1.824-2.015C230.725 147.934 230 148.55 230 154m15.402-3.605c-.294.767-.393 3.129-.219 5.25.302 3.667.5 3.87 4.067 4.165 2.864.237 3.75-.058 3.75-1.25 0-.997-.901-1.56-2.5-1.56-1.375 0-2.5-.45-2.5-1s.9-1 2-1 2-.45 2-1-.9-1-2-1-2-.45-2-1 1.377-1 3.059-1c1.785 0 2.802-.417 2.441-1-.948-1.534-7.48-1.215-8.098.395m-62.701 1.237c-.385.386-.701 1.783-.701 3.104 0 1.92.452 2.339 2.25 2.084 1.644-.234 2.25-.989 2.25-2.806 0-2.414-2.315-3.865-3.799-2.382m37 0c-.385.386-.701 1.751-.701 3.035 0 1.838.544 2.333 2.566 2.333 2.208 0 2.523-.383 2.25-2.741-.302-2.621-2.633-4.109-4.115-2.627"/><path fill="#1976D2" fill-opacity=".249" fill-rule="evenodd" d="M0 100v5h12.809c13.049 0 15.238.549 16.476 4.135.31.9-.102 2.587-.917 3.75C26.985 114.86 25.996 115 13.443 115H0V124.909l6.72.295 6.719.296 5.531 9.741 5.53 9.741 5.823.009 5.824.009-3.255-5.75c-1.791-3.162-4.299-7.429-5.574-9.48-2.78-4.473-2.815-4.769-.568-4.774.962-.002 3.217-.898 5.009-1.991 10.182-6.207 9.557-20.769-1.112-25.934C26.983 95.297 24.475 95 13.184 95H0zm59-3.046c-4.007 1.377-6.746 3.24-10.091 6.865-17.9 19.397 2.167 48.189 27.555 39.538 5.203-1.772 11.358-7.224 14.175-12.554 2.574-4.869 2.375-16.081-.377-21.371-3.048-5.857-9.262-11.057-15.384-12.876-6.685-1.985-9.117-1.924-15.878.398m57-.932c-6.418 1.122-10.087 2.715-13.339 5.792-11.433 10.816-9.051 32.648 4.383 40.186 4.134 2.319 5.595 2.524 20.206 2.838l15.75.338v-8.896l-13.919-.501c-15.765-.567-19.244-1.781-22.386-7.813-2.34-4.492-1.846-12.938.981-16.757 3.561-4.813 6.666-5.682 21.574-6.035l13.75-.325V95l-11.25.118c-6.187.064-13.275.471-15.75.904m55.109 10.451c-3.36 5.76-6.109 10.935-6.109 11.5 0 .565-.45 1.027-1 1.027s-1 .498-1 1.106c0 .608-2.925 5.961-6.5 11.894s-6.5 11.286-6.5 11.894c0 .773 6.326 1.106 21 1.106 12.485 0 21-.382 21-.943 0-.518-.944-2.543-2.099-4.5L187.802 136h-10.734c-5.904 0-11.009-.274-11.345-.61-.335-.335.517-2.394 1.894-4.575 1.377-2.181 2.814-4.736 3.193-5.677 1.232-3.054 10.457-18.138 11.093-18.138.65 0 5.496 8.013 16.18 26.756l6.417 11.256 24-.256 24-.256.307-4.25.308-4.25-21.808-.021-21.807-.021-5.5-9.614a4291.724 4291.724 0 0 0-8.753-15.229 979.507 979.507 0 0 1-5.908-10.365c-2.586-4.623-2.783-4.75-7.389-4.75h-4.732zM196 100v4h18.5c13.13 0 18.5.329 18.5 1.135 0 .624-5.47 6.372-12.155 12.773-11.512 11.024-12.063 11.731-10.428 13.366 3.356 3.356 7.386 2.21 13.993-3.981C245.018 107.983 253 99.802 253 97.988c0-1.938-.722-1.988-28.5-1.988H196zm-135.976 7.185c-13.72 9.326-8.686 27.799 7.578 27.811 19.569.015 20.247-27.906.722-29.725-3.898-.363-5.491.004-8.3 1.914M153 154.5v4.5l3.75-.118c3.633-.115 3.656-.139.75-.76-3.644-.779-3.939-3.271-.5-4.227l2.5-.696-2.75-.099c-3.821-.139-3.453-1.886.5-2.377 3.2-.397 3.192-.405-.5-.563L153 150zm13.667-3.833c-1.105 1.105-.75 5.85.533 7.133.66.66 2.348 1.155 3.75 1.1l2.55-.099-2.5-.69c-1.885-.52-2.576-1.462-2.808-3.828-.271-2.767.025-3.189 2.5-3.561l2.808-.422-3.083-.15c-1.696-.083-3.384.15-3.75.517m14.047-.048c-.393.393-.714 2.166-.714 3.939 0 2.578.486 3.347 2.421 3.833 4.135 1.038 5.72-.219 5.382-4.268-.27-3.223-.638-3.656-3.339-3.92-1.67-.164-3.357.024-3.75.416m23.552 3.881c.018 2.75.224 3.736.456 2.191.356-2.366.84-2.761 3.061-2.5 1.826.214 2.85 1.078 3.328 2.809.491 1.782.685 1.063.673-2.5-.009-2.75-.222-4.213-.473-3.25-.301 1.151-1.434 1.75-3.311 1.75s-3.01-.599-3.311-1.75c-.251-.963-.442.5-.423 3.25m13.341-2.918c-1.138 2.966-.61 5.346 1.431 6.438 4.126 2.209 7.945-1.349 6.462-6.02-.804-2.534-6.956-2.86-7.893-.418m13.553 3.013c.119 3.637.264 4.065.563 1.655.407-3.28 1.723-4.305 2.569-2 .366 1 .723 1 1.783 0 2.065-1.948 2.766-1.511 3.202 2 .31 2.498.44 2.151.563-1.5.174-5.171-.243-5.6-3.011-3.095-1.705 1.543-1.965 1.532-3.829-.155-1.976-1.788-1.998-1.75-1.84 3.095M246 154.5v4.5l3.75-.118c3.633-.115 3.656-.139.75-.76-3.644-.779-3.939-3.271-.5-4.227 2.295-.639 2.321-.704.309-.795-3.565-.163-3.623-1.936-.078-2.375 3.242-.402 3.238-.406-.481-.565L246 150zm-64.291-2.876c-2.285 2.286.705 6.922 3.718 5.766 2.45-.94 1.688-5.802-.968-6.182-1.123-.161-2.36.027-2.75.416M219 153.941c0 3.295 1.052 4.36 3.41 3.455.946-.363 1.59-1.781 1.59-3.503 0-2.419-.409-2.893-2.5-2.893-2.1 0-2.5.471-2.5 2.941"/><path fill="#1976D2" fill-opacity=".139" fill-rule="evenodd" d="M0 99.5v4.5h12.961c12.046 0 13.105.155 15 2.189 2.443 2.622 2.569 4.609.482 7.588-1.477 2.11-2.241 2.223-15 2.223H0v8h6.345c6.745 0 7.946.69 10.772 6.192.761 1.481 2.849 5.194 4.642 8.25L25.017 144h5.051c3.768 0 4.862-.317 4.309-1.25-.407-.687-2.867-4.666-5.466-8.841-4.741-7.615-5.004-9.58-1.368-10.183 6.014-.996 10.447-6.733 10.453-13.526.006-6.344-2.251-9.836-8.216-12.713C25.147 95.252 23.38 95 12.313 95H0zm64-3.529c-.825.469-3.56 1.575-6.077 2.458C48.989 101.561 43 110.402 43 120.461c0 9.067 3.674 15.331 11.977 20.418 3.856 2.363 5.667 2.787 12.272 2.877 6.522.088 8.455-.291 12.212-2.39C84.344 138.637 91 130.444 91 127.163c0-1.138.537-3.248 1.194-4.69.926-2.032.926-3.051 0-4.534-.657-1.051-1.194-2.749-1.194-3.772 0-5.534-8.311-14.331-15.455-16.357-2.225-.631-4.472-1.521-4.995-1.979-1.199-1.049-4.588-.976-6.55.14m53.861.523c-9.835 2.151-10.642 2.451-13.833 5.136-7.513 6.321-10.236 19.053-6.127 28.64 1.981 4.62 7.969 12.194 8.902 11.26.296-.295 1.504.097 2.686.871 1.582 1.037 6.15 1.444 17.33 1.544l15.181.137V137.3l-13.378-.561c-13.891-.583-17.41-1.537-20.857-5.654-4.941-5.903-3.509-20.266 2.389-23.949 3.067-1.916 5.809-2.265 19.346-2.461l12-.175.305-4.75.305-4.75-9.305.13c-5.118.072-11.842.685-14.944 1.364m-57.081 9.444c-4.514 2.256-6.028 3.706-8.15 7.811-3.812 7.372-.186 16.882 8.054 21.126 3.337 1.719 11.496 1.385 14.343-.587 3.493-2.419 7.288-6.882 7.65-8.995 1.429-8.34.816-11.085-3.491-15.625-5.309-5.597-11.968-6.946-18.406-3.73m94.489 44.755c.973.254 2.323.237 3-.037.677-.274-.119-.481-1.769-.461-1.65.02-2.204.244-1.231.498m14.544-.01c.721.289 1.584.253 1.916-.079.332-.332-.258-.568-1.312-.525-1.165.048-1.402.285-.604.604m78.456.01c.973.254 2.323.237 3-.037.677-.274-.119-.481-1.769-.461-1.65.02-2.204.244-1.231.498M187.158 154c0 1.375.227 1.938.504 1.25.278-.687.278-1.812 0-2.5-.277-.687-.504-.125-.504 1.25"/></svg>